<svg version="1.1" xmlns="http://www.w3.org/2000/svg" xmlns:xlink="http://www.w3.org/1999/xlink">
    <symbol id="logo" viewBox="0 0 600 172">
        
        <g>
            <g>
                <path class="st0" d="M80.6,72.1l-1.8,1.5c-1.2,1-2.5,2.1-3.9,3.2c3.5,9.6,9.4,16.5,10.9,26.6c1.5,10.4-5.3,21.1-17,23.1    c-8.5,1.4-18.1-3.7-21.6-13c-1,3.6-1.5,7.5-1.5,11.6c0,23.9,18.4,32.4,34.1,32.4c14.9,0,26.4-7.2,36.9-16.7    c5.7-10.7,7.7-22.8,6.5-33.8c-3-27.6-22-30.1-36.6-58.3C86.8,59.1,86.4,67.3,80.6,72.1" fill="#E30613"/>
                <path class="st1" d="M83.8,3.6c0.6-1.8-1.5-3.4-3-2.2C47.6,27.6,1.1,72.3,1.1,117c0,36.1,28.8,54,60.4,54    c33.3,0,51.7-17.1,58.9-38.3c-17.2,37.2-81.2,35.5-81.2-10.2c0-27.5,21.9-44.2,36.3-56C85.4,58.4,74.9,32.6,83.8,3.6" fill="#0069B4"/>
            </g>
            <g>
                <g>
                    <path class="st2" d="M164.7,101c0,0.5-0.1,0.8-0.2,0.9c-0.2,0.1-0.5,0.2-1,0.2h-4c-0.4,0-0.7-0.1-0.9-0.2s-0.3-0.4-0.3-0.9V67.6     c0-1,0.2-1.8,0.6-2.3c0.4-0.5,1.2-0.8,2.4-0.8H174c1.8,0,3.4,0.3,4.9,0.8c1.5,0.6,2.7,1.3,3.8,2.4c1.1,1,1.9,2.2,2.5,3.6     s0.9,2.9,0.9,4.6c0,1-0.2,2.1-0.5,3.4s-0.9,2.6-1.8,3.9c-0.9,1.2-2.2,2.3-3.8,3.2c-1.6,0.9-3.8,1.3-6.5,1.3h-8.7L164.7,101     L164.7,101z M179.3,76.4c0-0.6-0.1-1.3-0.3-2s-0.5-1.4-1-2s-1.1-1.1-2-1.5s-1.9-0.6-3.3-0.6h-7.9v11.9h8c2.2,0,3.9-0.6,4.9-1.7     C178.8,79.5,179.3,78.1,179.3,76.4z" fill="#25316B"/>
                    <path class="st2" d="M224.5,83.2c0,6.2-1.4,11-4.1,14.4c-2.7,3.4-6.9,5.1-12.4,5.1c-5.4,0-9.4-1.6-12.1-4.9c-2.7-3.3-4-8-4-14.4     c0-3.1,0.4-5.8,1.2-8.2c0.8-2.4,1.9-4.4,3.4-6.1c1.4-1.7,3.2-2.9,5.1-3.8c2-0.9,4.2-1.3,6.5-1.3c2.7,0,5,0.4,7.1,1.3     c2,0.9,3.8,2.1,5.1,3.8c1.4,1.7,2.4,3.7,3.1,6C224.1,77.6,224.5,80.3,224.5,83.2z M217.8,83.4c0-1.8-0.1-3.5-0.4-5.1     c-0.3-1.6-0.7-3.1-1.4-4.3c-0.7-1.2-1.7-2.2-2.9-3c-1.2-0.7-2.8-1.1-4.7-1.1c-1.6,0-3.1,0.3-4.3,1s-2.2,1.6-3,2.9     c-0.8,1.2-1.4,2.6-1.8,4.2c-0.4,1.6-0.6,3.3-0.6,5.1c0,2.1,0.2,3.9,0.5,5.6s0.8,3.1,1.6,4.3c0.7,1.2,1.7,2.1,3,2.8     c1.2,0.6,2.8,1,4.6,1s3.3-0.4,4.6-1.1c1.2-0.7,2.2-1.7,3-3c0.7-1.2,1.3-2.6,1.6-4.2C217.6,86.8,217.8,85.2,217.8,83.4z" fill="#25316B"/>
                    <path class="st2" d="M249.1,96.6c1.6,0,3.1-0.2,4.4-0.6c1.4-0.4,2.6-0.8,3.8-1.3c0.5-0.2,0.8-0.2,1-0.1s0.3,0.4,0.5,0.6l1.4,3     c0.2,0.5,0.3,0.8,0.3,1c-0.1,0.2-0.2,0.4-0.5,0.6c-1.8,1.1-3.8,1.8-5.8,2.1c-2.1,0.4-4.1,0.5-6,0.5c-5.4,0-9.5-1.6-12.3-4.7     s-4.1-7.9-4.1-14.2c0-3,0.4-5.6,1.2-8.1c0.8-2.4,2-4.5,3.4-6.2c1.5-1.7,3.2-3,5.3-4c2.1-0.9,4.4-1.4,6.9-1.4     c1.6,0,3.3,0.1,4.9,0.4c1.7,0.3,3.4,0.9,5.2,1.8c0.3,0.1,0.5,0.3,0.6,0.5s0,0.5-0.2,1l-1.5,3.1c-0.1,0.4-0.3,0.6-0.4,0.7     s-0.4,0.1-0.8-0.1c-1.2-0.5-2.4-0.8-3.6-1.1c-1.2-0.3-2.5-0.4-3.9-0.4c-1.8,0-3.3,0.4-4.6,1.1s-2.4,1.8-3.2,3     c-0.8,1.3-1.5,2.7-1.9,4.4c-0.4,1.7-0.6,3.4-0.6,5.2c0,1.8,0.2,3.4,0.5,5c0.3,1.5,0.9,2.9,1.7,4.1s1.9,2.1,3.3,2.8     C245.4,96.3,247.1,96.6,249.1,96.6z" fill="#25316B"/>
                    <path class="st2" d="M290,81.6c1,0.4,1.9,0.9,2.6,1.6s1.4,1.4,1.8,2.2c0.5,0.8,0.8,1.7,1,2.6s0.3,1.9,0.3,2.8     c0,1.7-0.3,3.2-1,4.6S293.2,98,292,99c-1.1,1-2.4,1.8-4,2.3c-1.5,0.5-3.1,0.8-4.9,0.8h-13c-1.1,0-1.9-0.2-2.4-0.7     c-0.4-0.5-0.6-1.3-0.6-2.3V67.7c0-1,0.2-1.8,0.6-2.3s1.2-0.7,2.4-0.7l12.4-0.1c1.6,0,3.2,0.2,4.6,0.5c1.4,0.4,2.6,0.9,3.7,1.7     s1.8,1.7,2.4,2.9c0.6,1.2,0.9,2.6,0.9,4.2s-0.4,3.1-1.2,4.4c-0.8,1.3-1.8,2.3-3,3v0.3H290z M273.8,79.2h8.7c0.5,0,1-0.1,1.6-0.2     s1.1-0.4,1.6-0.7c0.5-0.3,0.9-0.8,1.2-1.4c0.3-0.6,0.5-1.4,0.5-2.3c0-1.3-0.4-2.3-1.3-3c-0.8-0.7-2-1.1-3.4-1.1h-9L273.8,79.2     L273.8,79.2z M289.1,90.4c0-1.7-0.5-3.1-1.6-4.2s-2.7-1.6-4.8-1.6h-8.9v11.7h8.8c1.3,0,2.3-0.2,3.2-0.6s1.5-0.8,2-1.4     s0.8-1.2,1-1.9C289,91.6,289.1,91,289.1,90.4z" fill="#25316B"/>
                    <path class="st2" d="M335.6,83.2c0,6.2-1.4,11-4.1,14.4s-6.9,5.1-12.4,5.1c-5.4,0-9.4-1.6-12.1-4.9s-4-8-4-14.4     c0-3.1,0.4-5.8,1.2-8.2c0.8-2.4,1.9-4.4,3.4-6.1c1.4-1.7,3.2-2.9,5.1-3.8c2-0.9,4.2-1.3,6.5-1.3c2.7,0,5,0.4,7.1,1.3     c2,0.9,3.8,2.1,5.1,3.8c1.4,1.7,2.4,3.7,3.1,6C335.2,77.6,335.6,80.3,335.6,83.2z M328.8,83.4c0-1.8-0.1-3.5-0.4-5.1     s-0.7-3.1-1.4-4.3c-0.7-1.2-1.7-2.2-2.9-3c-1.2-0.7-2.8-1.1-4.7-1.1c-1.6,0-3.1,0.3-4.3,1c-1.2,0.7-2.2,1.6-3,2.9     c-0.8,1.2-1.4,2.6-1.8,4.2s-0.6,3.3-0.6,5.1c0,2.1,0.2,3.9,0.5,5.6s0.8,3.1,1.6,4.3c0.7,1.2,1.7,2.1,3,2.8c1.2,0.6,2.8,1,4.6,1     c1.8,0,3.3-0.4,4.6-1.1c1.2-0.7,2.2-1.7,3-3c0.7-1.2,1.3-2.6,1.6-4.2C328.7,86.8,328.8,85.2,328.8,83.4z" fill="#25316B"/>
                    <path class="st2" d="M346,102.1l-0.6,7.9c0,0.4-0.1,0.7-0.3,0.8c-0.1,0.1-0.4,0.2-0.6,0.2H341c-0.2,0-0.4-0.1-0.6-0.2     c-0.1-0.1-0.2-0.4-0.3-0.8l-0.7-11c0-0.6,0.1-1.2,0.3-1.7c0.2-0.5,0.8-0.8,1.6-0.9l1.9-0.2c0.6-0.7,1.2-1.5,1.6-2.2     c0.4-0.8,0.7-1.6,1-2.5s0.5-1.9,0.7-3s0.4-2.3,0.5-3.7l2.2-17c0.2-1.1,0.6-1.9,1.2-2.5c0.6-0.5,1.5-0.8,2.8-0.8h16.5     c1.3,0,2.2,0.3,2.8,0.9c0.5,0.6,0.8,1.5,0.8,2.7v28.1l2.2,0.1c0.9,0.1,1.4,0.3,1.6,0.7c0.2,0.4,0.3,0.8,0.2,1.3l-0.7,11.4     c0,0.4-0.1,0.7-0.2,0.8s-0.3,0.2-0.6,0.2H372c-0.3,0-0.5-0.1-0.6-0.2s-0.2-0.4-0.2-0.8l-0.3-7.9H346V102.1z M366.7,70.4H355     L353.7,81c-0.3,2.8-0.6,5-0.9,6.7c-0.2,1.7-0.5,3.1-0.7,4.2s-0.5,1.9-0.8,2.5s-0.6,1.3-1,1.9h16.3V70.4H366.7z" fill="#25316B"/>
                    <path class="st2" d="M415.5,83.2c0,6.2-1.4,11-4.1,14.4s-6.9,5.1-12.4,5.1c-5.4,0-9.4-1.6-12.1-4.9s-4-8-4-14.4     c0-3.1,0.4-5.8,1.2-8.2c0.8-2.4,1.9-4.4,3.4-6.1c1.4-1.7,3.2-2.9,5.1-3.8c2-0.9,4.2-1.3,6.5-1.3c2.7,0,5,0.4,7.1,1.3     c2,0.9,3.8,2.1,5.1,3.8c1.4,1.7,2.4,3.7,3.1,6C415.2,77.6,415.5,80.3,415.5,83.2z M408.8,83.4c0-1.8-0.1-3.5-0.4-5.1     s-0.7-3.1-1.4-4.3c-0.7-1.2-1.7-2.2-2.9-3c-1.2-0.7-2.8-1.1-4.7-1.1c-1.6,0-3.1,0.3-4.3,1c-1.2,0.7-2.2,1.6-3,2.9     c-0.8,1.2-1.4,2.6-1.8,4.2s-0.6,3.3-0.6,5.1c0,2.1,0.2,3.9,0.5,5.6s0.8,3.1,1.6,4.3c0.7,1.2,1.7,2.1,3,2.8c1.2,0.6,2.8,1,4.6,1     c1.8,0,3.3-0.4,4.6-1.1c1.2-0.7,2.2-1.7,3-3c0.7-1.2,1.3-2.6,1.6-4.2C408.6,86.8,408.8,85.2,408.8,83.4z" fill="#25316B"/>
                    <path class="st2" d="M444,82.1c0.9,0.3,1.7,0.7,2.3,1.1c0.6,0.4,1.1,0.9,1.5,1.4c0.4,0.6,0.7,1.2,0.9,1.8     c0.2,0.7,0.5,1.4,0.7,2.2l3.3,12.4c0.1,0.2,0.1,0.4,0,0.7c-0.1,0.3-0.3,0.4-0.8,0.4h-4.7c-0.2,0-0.4,0-0.6-0.1s-0.4-0.3-0.5-0.6     L443,89.6c-0.5-1.9-1.3-3.2-2.4-3.8c-1.1-0.6-2.5-0.9-4.4-0.9h-6l0.1,16.4c0,0.4-0.1,0.6-0.2,0.7s-0.4,0.1-0.7,0.1h-4.5     c-0.3,0-0.6,0-0.7-0.1c-0.2-0.1-0.2-0.3-0.2-0.7V65.5c0-0.4,0.1-0.6,0.2-0.7c0.2-0.1,0.4-0.1,0.7-0.1h4.6c0.4,0,0.6,0,0.7,0.1     s0.2,0.3,0.1,0.7v13.9h5.7c0.5,0,1.1,0,1.7-0.1s1.2-0.3,1.8-0.7c0.6-0.4,1.1-0.9,1.6-1.6s0.9-1.6,1.2-2.7l2.4-9     c0.1-0.4,0.2-0.6,0.5-0.6c0.2-0.1,0.4-0.1,0.6-0.1h4.4c0.5,0,0.7,0.1,0.8,0.4c0.1,0.3,0,0.5,0,0.7l-2.4,9.6     c-0.4,1.5-0.9,2.8-1.6,3.9s-1.7,2-2.8,2.7v0.2C444.2,82.1,444,82.1,444,82.1z" fill="#25316B"/>
                    <path class="st2" d="M479.4,93.9h-13.6l-2.4,7.3c-0.1,0.3-0.3,0.6-0.5,0.7s-0.5,0.2-0.9,0.2h-4.9c-0.4,0-0.6-0.1-0.7-0.3     c-0.1-0.2-0.1-0.5,0-0.8L468,67.1c0.2-0.5,0.4-1,0.5-1.3c0.2-0.3,0.4-0.6,0.7-0.7c0.3-0.2,0.6-0.3,0.9-0.4     c0.4-0.1,0.8-0.1,1.3-0.1h2.3c1.1,0,1.9,0.2,2.4,0.5s0.9,1,1.2,2.1l11.6,33.8c0.1,0.3,0.1,0.5,0,0.8c-0.1,0.2-0.3,0.3-0.7,0.3     h-4.9c-0.4,0-0.7,0-0.9-0.1c-0.2-0.1-0.4-0.3-0.6-0.7L479.4,93.9z M467.4,88.3h10.3l-2.8-9l-2.2-7.6h-0.3l-2.2,7.4L467.4,88.3z" fill="#25316B"/>
                    <path class="st2" d="M524.5,101.9c-0.2,0.1-0.5,0.2-1,0.2h-4.1c-0.4,0-0.7-0.1-0.9-0.2s-0.3-0.4-0.3-0.9V85.2h-16.6V101     c0,0.5-0.1,0.8-0.3,0.9c-0.2,0.1-0.5,0.2-1,0.2h-4.1c-0.4,0-0.7-0.1-0.9-0.2c-0.2-0.1-0.3-0.4-0.3-0.9V65.8     c0-0.5,0.1-0.8,0.3-0.9c0.2-0.1,0.5-0.2,0.9-0.2h4.1c0.5,0,0.8,0.1,1,0.2s0.3,0.4,0.3,0.9v13.8h16.6V65.8c0-0.5,0.1-0.8,0.3-0.9     s0.5-0.2,0.9-0.2h4.1c0.5,0,0.8,0.1,1,0.2s0.2,0.4,0.2,0.9V101C524.8,101.5,524.7,101.8,524.5,101.9z" fill="#25316B"/>
                    <path class="st2" d="M554,93.9h-13.6l-2.4,7.3c-0.1,0.3-0.3,0.6-0.5,0.7s-0.5,0.2-0.9,0.2h-4.9c-0.4,0-0.6-0.1-0.7-0.3     c-0.1-0.2-0.1-0.5,0-0.8l11.5-33.8c0.2-0.5,0.4-1,0.5-1.3c0.2-0.3,0.4-0.6,0.7-0.7c0.3-0.2,0.6-0.3,0.9-0.4     c0.4-0.1,0.8-0.1,1.3-0.1h2.3c1.1,0,1.9,0.2,2.4,0.5s0.9,1,1.2,2.1l11.6,33.8c0.1,0.3,0.1,0.5,0,0.8c-0.1,0.2-0.3,0.3-0.7,0.3     h-4.9c-0.4,0-0.7,0-0.9-0.1s-0.4-0.3-0.6-0.7L554,93.9z M542,88.3h10.3l-2.8-9l-2.2-7.6H547l-2.2,7.4L542,88.3z" fill="#25316B"/>
                    <path class="st2" d="M574.5,68.2c0.1-1.3,0.4-2.2,0.9-2.8c0.6-0.6,1.4-0.8,2.5-0.8h17.5c2.3,0,3.4,1.2,3.4,3.6v32.9     c0,0.4-0.1,0.6-0.2,0.7c-0.1,0.1-0.4,0.2-0.8,0.2h-4.5c-0.4,0-0.6-0.1-0.8-0.2s-0.2-0.4-0.2-0.7V70.4h-11.8l-0.3,4.7     c-0.3,4-0.6,7.6-0.9,10.7c-0.3,3.1-0.8,5.9-1.6,8.2c-0.7,2.3-1.8,4.2-3.2,5.7s-3.4,2.6-5.9,3.4c-0.4,0.1-0.7,0.1-0.9,0     s-0.4-0.3-0.6-0.7l-1.1-3.2c-0.1-0.3-0.1-0.6,0-0.8c0.1-0.2,0.3-0.4,0.7-0.6c1.5-0.6,2.7-1.5,3.5-2.5s1.5-2.3,2-4s0.8-3.8,1-6.3     s0.5-5.6,0.8-9.3L574.5,68.2z" fill="#25316B"/>
                </g>
            </g>
            <g>
                <path class="st2" d="M158.6,118.4c0-0.6,0.1-1,0.4-1.3c0.2-0.3,0.7-0.4,1.3-0.4h7.7c1,0,2,0.2,2.8,0.5c0.9,0.3,1.6,0.8,2.2,1.4    c0.6,0.6,1.1,1.3,1.5,2.2c0.4,0.8,0.5,1.8,0.5,2.8c0,0.6-0.1,1.3-0.3,2.1c-0.2,0.8-0.6,1.6-1.1,2.3c-0.5,0.7-1.3,1.3-2.2,1.8    c-1,0.5-2.2,0.8-3.7,0.8h-6.1v8.7c0,0.2,0,0.4-0.1,0.5c-0.1,0.1-0.3,0.1-0.5,0.1h-1.7c-0.2,0-0.4,0-0.5-0.1    c-0.1-0.1-0.1-0.2-0.1-0.5V118.4z M171.9,123.8c0-0.5-0.1-0.9-0.2-1.4c-0.1-0.5-0.4-0.9-0.7-1.4c-0.4-0.4-0.8-0.7-1.5-1    c-0.6-0.3-1.4-0.4-2.3-0.4h-5.6v8.4h5.6c1.6,0,2.7-0.4,3.5-1.1C171.5,126.1,171.9,125.1,171.9,123.8z" fill="#25316B"/>
                <path class="st2" d="M191.7,127.2c0.7,0.2,1.3,0.6,1.7,1c0.5,0.4,0.9,0.9,1.2,1.4c0.3,0.5,0.5,1.1,0.7,1.7    c0.1,0.6,0.2,1.2,0.2,1.8c0,1-0.2,2-0.6,2.8c-0.4,0.8-0.9,1.6-1.6,2.2c-0.7,0.6-1.5,1.1-2.4,1.4c-0.9,0.3-1.9,0.5-3,0.5h-7.8    c-0.6,0-1-0.1-1.3-0.4c-0.3-0.3-0.4-0.7-0.4-1.3v-19.8c0-0.6,0.1-1,0.4-1.3c0.2-0.3,0.7-0.4,1.3-0.4l7.3,0c1,0,1.9,0.1,2.8,0.3    c0.8,0.2,1.6,0.5,2.2,1s1.1,1.1,1.4,1.8c0.4,0.7,0.5,1.6,0.5,2.6c0,1-0.3,1.9-0.8,2.7c-0.5,0.8-1.2,1.4-2,1.9V127.2z M181.6,126.1    h6.1c0.4,0,0.7,0,1.2-0.1c0.4-0.1,0.9-0.3,1.2-0.5s0.7-0.6,1-1.1c0.3-0.5,0.4-1,0.4-1.7c0-0.9-0.3-1.7-0.9-2.3    c-0.6-0.6-1.5-0.9-2.6-0.9h-6.3V126.1z M192.4,132.8c0-1.3-0.4-2.3-1.2-3c-0.8-0.8-2-1.2-3.5-1.2h-6.1v8.5h6.1    c0.9,0,1.7-0.1,2.3-0.4c0.6-0.3,1.1-0.6,1.5-1.1s0.6-0.9,0.7-1.4S192.4,133.2,192.4,132.8z" fill="#25316B"/>
                <path class="st2" d="M211.3,127.5c0.6,0.2,1,0.4,1.4,0.7c0.4,0.3,0.7,0.6,0.9,0.9c0.3,0.4,0.5,0.7,0.6,1.2    c0.2,0.4,0.3,0.9,0.4,1.4l2.1,7.7c0,0.1,0,0.2,0,0.4c0,0.1-0.2,0.2-0.4,0.2h-2c-0.1,0-0.2,0-0.4-0.1c-0.1,0-0.2-0.2-0.3-0.4    l-2-7.4c-0.2-0.6-0.4-1.2-0.6-1.6c-0.2-0.4-0.5-0.7-0.9-1c-0.4-0.2-0.7-0.4-1.2-0.5c-0.4-0.1-0.9-0.1-1.5-0.1h-4.7v10.5    c0,0.2,0,0.4-0.1,0.4c-0.1,0.1-0.2,0.1-0.4,0.1h-1.9c-0.2,0-0.3,0-0.4-0.1s-0.1-0.2-0.1-0.4v-22.1c0-0.2,0-0.4,0.1-0.4    c0.1-0.1,0.2-0.1,0.4-0.1h1.9c0.2,0,0.3,0,0.4,0.1c0.1,0.1,0.1,0.2,0.1,0.4v8.9h4.4c0.4,0,0.7,0,1.1-0.1s0.8-0.2,1.1-0.5    c0.4-0.2,0.7-0.6,1-1c0.3-0.4,0.6-1,0.8-1.7l1.5-5.7c0-0.2,0.1-0.3,0.2-0.4s0.2-0.1,0.3-0.1h1.8c0.3,0,0.4,0.1,0.4,0.2    c0,0.2,0,0.3,0,0.4l-1.5,5.9c-0.2,0.9-0.6,1.8-1,2.5c-0.4,0.7-1,1.2-1.8,1.6V127.5z" fill="#25316B"/>
                <path class="st2" d="M224.3,137.9c0,0.7-0.2,1.2-0.7,1.7c-0.4,0.5-1,0.7-1.7,0.7c-0.7,0-1.2-0.2-1.7-0.7c-0.5-0.4-0.7-1-0.7-1.7    c0-0.7,0.2-1.2,0.7-1.7c0.5-0.5,1-0.7,1.7-0.7c0.7,0,1.2,0.2,1.7,0.7C224,136.7,224.3,137.3,224.3,137.9z" fill="#25316B"/>
                <path class="st2" d="M240.1,127.5c0.6,0.2,1,0.4,1.4,0.7c0.4,0.3,0.7,0.6,0.9,0.9c0.3,0.4,0.5,0.7,0.6,1.2    c0.2,0.4,0.3,0.9,0.4,1.4l2.1,7.7c0,0.1,0,0.2,0,0.4c0,0.1-0.2,0.2-0.4,0.2h-2c-0.1,0-0.2,0-0.4-0.1c-0.1,0-0.2-0.2-0.3-0.4    l-2-7.4c-0.2-0.6-0.4-1.2-0.6-1.6s-0.5-0.7-0.9-1s-0.7-0.4-1.2-0.5c-0.4-0.1-0.9-0.1-1.5-0.1h-4.7v10.5c0,0.2,0,0.4-0.1,0.4    c-0.1,0.1-0.2,0.1-0.4,0.1h-1.9c-0.2,0-0.3,0-0.4-0.1s-0.1-0.2-0.1-0.4v-22.1c0-0.2,0-0.4,0.1-0.4c0.1-0.1,0.2-0.1,0.4-0.1h1.9    c0.2,0,0.3,0,0.4,0.1c0.1,0.1,0.1,0.2,0.1,0.4v8.9h4.4c0.4,0,0.7,0,1.1-0.1s0.8-0.2,1.1-0.5s0.7-0.6,1-1c0.3-0.4,0.6-1,0.8-1.7    l1.5-5.7c0-0.2,0.1-0.3,0.2-0.4s0.2-0.1,0.3-0.1h1.8c0.3,0,0.4,0.1,0.4,0.2c0,0.2,0,0.3,0,0.4l-1.5,5.9c-0.2,0.9-0.6,1.8-1,2.5    c-0.4,0.7-1,1.2-1.8,1.6V127.5z" fill="#25316B"/>
                <path class="st2" d="M262.1,138.3c0,0.4-0.2,0.7-0.5,0.9c-1,0.4-2.1,0.7-3.2,0.9c-1.2,0.2-2.3,0.2-3.3,0.2c-1.4,0-2.6-0.1-3.5-0.4    s-1.6-0.7-2.2-1.2c-0.5-0.5-0.9-1.1-1.1-1.8c-0.2-0.7-0.3-1.4-0.3-2.1c0-0.8,0.1-1.5,0.4-2.2c0.3-0.7,0.7-1.3,1.2-1.9    s1.3-1,2.2-1.3s2-0.5,3.3-0.5h4v-0.7c0-0.5,0-1-0.1-1.4c-0.1-0.4-0.3-0.8-0.6-1.1s-0.7-0.5-1.2-0.7c-0.5-0.2-1.2-0.2-2-0.2    c-0.8,0-1.6,0.1-2.5,0.2c-0.9,0.1-1.6,0.3-2.1,0.5c-0.2,0.1-0.3,0.1-0.4,0.1c-0.1,0-0.2-0.1-0.2-0.3l-0.4-1.4c0-0.1,0-0.2,0-0.3    c0-0.1,0.1-0.2,0.3-0.2c0.8-0.4,1.8-0.6,2.9-0.7c1.1-0.1,2.1-0.2,3-0.2c2.2,0,3.8,0.5,4.8,1.5c1,1,1.5,2.4,1.5,4.3V138.3z     M259.1,131.4h-3.8c-0.4,0-0.9,0-1.4,0.1c-0.5,0.1-1,0.2-1.5,0.4c-0.5,0.2-0.9,0.6-1.2,1c-0.3,0.5-0.5,1.1-0.5,1.9    c0,0.6,0.1,1.1,0.3,1.5s0.5,0.7,0.9,1c0.4,0.2,0.8,0.4,1.3,0.5c0.5,0.1,1.1,0.1,1.6,0.1c0.2,0,0.5,0,0.8,0s0.7,0,1.1-0.1    c0.4-0.1,0.8-0.1,1.2-0.2c0.4-0.1,0.8-0.2,1.1-0.3V131.4z" fill="#25316B"/>
                <path class="st2" d="M272.9,139.8c-0.1,0.1-0.2,0.1-0.5,0.1h-1.6c-0.2,0-0.4,0-0.5-0.1c-0.1-0.1-0.1-0.2-0.1-0.5v-14.2h-5.1    c-0.2,0-0.4,0-0.5-0.2c-0.1-0.1-0.1-0.2-0.1-0.4v-1.3c0-0.2,0-0.4,0.1-0.5s0.2-0.2,0.5-0.2h13.3c0.3,0,0.4,0.1,0.5,0.2    c0.1,0.1,0.1,0.3,0.1,0.5v1.3c0,0.2,0,0.3-0.1,0.4c-0.1,0.1-0.2,0.2-0.5,0.2h-5.3v14.2C273.1,139.5,273,139.7,272.9,139.8z" fill="#25316B"/>
                <path class="st2" d="M293.3,138.3c0,0.4-0.2,0.7-0.5,0.9c-1,0.4-2.1,0.7-3.2,0.9c-1.2,0.2-2.3,0.2-3.3,0.2c-1.4,0-2.6-0.1-3.5-0.4    s-1.6-0.7-2.2-1.2c-0.5-0.5-0.9-1.1-1.1-1.8c-0.2-0.7-0.3-1.4-0.3-2.1c0-0.8,0.1-1.5,0.4-2.2c0.3-0.7,0.7-1.3,1.2-1.9    s1.3-1,2.2-1.3s2-0.5,3.3-0.5h4v-0.7c0-0.5,0-1-0.1-1.4c-0.1-0.4-0.3-0.8-0.6-1.1s-0.7-0.5-1.2-0.7c-0.5-0.2-1.2-0.2-2-0.2    c-0.8,0-1.6,0.1-2.5,0.2c-0.9,0.1-1.6,0.3-2.1,0.5c-0.2,0.1-0.3,0.1-0.4,0.1c-0.1,0-0.2-0.1-0.2-0.3l-0.4-1.4c0-0.1,0-0.2,0-0.3    c0-0.1,0.1-0.2,0.3-0.2c0.8-0.4,1.8-0.6,2.9-0.7c1.1-0.1,2.1-0.2,3-0.2c2.2,0,3.8,0.5,4.8,1.5c1,1,1.5,2.4,1.5,4.3V138.3z     M290.3,131.4h-3.8c-0.4,0-0.9,0-1.4,0.1c-0.5,0.1-1,0.2-1.5,0.4c-0.5,0.2-0.9,0.6-1.2,1c-0.3,0.5-0.5,1.1-0.5,1.9    c0,0.6,0.1,1.1,0.3,1.5s0.5,0.7,0.9,1c0.4,0.2,0.8,0.4,1.3,0.5c0.5,0.1,1.1,0.1,1.6,0.1c0.2,0,0.5,0,0.8,0s0.7,0,1.1-0.1    c0.4-0.1,0.8-0.1,1.2-0.2c0.4-0.1,0.8-0.2,1.1-0.3V131.4z" fill="#25316B"/>
                <path class="st2" d="M299.9,124.2c0-0.6,0.2-1,0.5-1.3c0.3-0.3,0.7-0.4,1.2-0.4h8.5c0.6,0,1.1,0.1,1.3,0.4    c0.2,0.3,0.3,0.7,0.3,1.2v15.2c0,0.2,0,0.4-0.1,0.4c-0.1,0.1-0.3,0.1-0.5,0.1h-1.6c-0.2,0-0.4,0-0.5-0.1c-0.1-0.1-0.1-0.2-0.1-0.4    v-14.3h-6.4l-0.2,2.5c-0.2,2.2-0.4,4-0.6,5.5c-0.2,1.5-0.5,2.7-0.9,3.7s-0.9,1.7-1.5,2.3s-1.4,1-2.5,1.3c-0.1,0-0.3,0.1-0.4,0.1    c-0.2,0-0.3-0.1-0.3-0.3l-0.4-1.3c-0.1-0.3,0-0.5,0.4-0.7c0.6-0.3,1.1-0.6,1.5-1c0.4-0.4,0.7-0.9,1-1.7c0.3-0.7,0.5-1.7,0.6-2.9    c0.2-1.2,0.3-2.8,0.5-4.8L299.9,124.2z" fill="#25316B"/>
                <path class="st2" d="M316,123.1c0-0.2,0-0.4,0.1-0.4c0.1-0.1,0.2-0.1,0.4-0.1h1.8c0.2,0,0.3,0,0.4,0.1c0.1,0.1,0.1,0.2,0.1,0.4    v12.7h0.1c0.5-0.8,1-1.6,1.4-2.3c0.4-0.7,0.9-1.4,1.5-2.2l5-7.7c0.2-0.4,0.4-0.6,0.6-0.8s0.5-0.2,1-0.2h0.9c0.4,0,0.7,0.1,0.9,0.3    c0.3,0.2,0.4,0.5,0.4,1v15.5c0,0.2,0,0.3-0.1,0.4s-0.2,0.1-0.4,0.1h-1.8c-0.2,0-0.3,0-0.4-0.1c-0.1-0.1-0.1-0.2-0.1-0.4v-12.6    h-0.2c-0.3,0.4-0.5,0.8-0.7,1.1c-0.2,0.3-0.4,0.7-0.6,1s-0.4,0.7-0.6,1c-0.2,0.4-0.5,0.7-0.7,1.1l-5.1,7.8    c-0.2,0.4-0.5,0.6-0.7,0.8c-0.2,0.1-0.5,0.2-0.9,0.2h-0.8c-0.4,0-0.7-0.1-1-0.3s-0.4-0.5-0.4-1V123.1z" fill="#25316B"/>
                <path class="st2" d="M343.8,130.7c1,0.3,1.9,0.8,2.5,1.5c0.6,0.7,0.9,1.6,0.9,2.6c0,0.8-0.2,1.5-0.5,2.1c-0.3,0.7-0.8,1.2-1.4,1.7    c-0.6,0.5-1.3,0.9-2.2,1.2c-0.9,0.3-1.9,0.4-3.1,0.4c-1.1,0-2.2-0.1-3.4-0.3s-2.2-0.5-3-0.9c-0.3-0.2-0.4-0.4-0.3-0.6l0.7-1.5    c0.1-0.1,0.2-0.2,0.3-0.2c0.1,0,0.2,0,0.4,0.1c0.5,0.2,1.2,0.5,2.1,0.7c0.9,0.2,1.8,0.3,2.7,0.3c1.7,0,2.9-0.3,3.6-0.9    c0.7-0.6,1.1-1.4,1.1-2.3c0-0.8-0.4-1.5-1.2-2s-2.1-0.8-3.9-0.8c-0.4,0-0.6-0.1-0.8-0.2c-0.2-0.1-0.3-0.3-0.3-0.7v-0.6    c0-0.6,0.4-0.9,1.1-0.9c3-0.1,4.5-0.9,4.5-2.5c0-0.7-0.3-1.3-1-1.7c-0.6-0.4-1.6-0.6-2.8-0.6c-0.7,0-1.5,0.1-2.4,0.3    s-1.5,0.4-2.1,0.6c-0.1,0-0.2,0.1-0.3,0.1c-0.1,0-0.2-0.1-0.3-0.2l-0.6-1.4c-0.1-0.2,0-0.4,0.2-0.5c0.8-0.4,1.7-0.7,2.7-1    s2.1-0.3,3.2-0.3c1.9,0,3.4,0.4,4.5,1.2c1.2,0.8,1.7,1.9,1.7,3.3c0,0.8-0.3,1.6-0.8,2.3C345.3,129.7,344.6,130.3,343.8,130.7    L343.8,130.7z" fill="#25316B"/>
            </g>
        </g>
    </symbol>
    <symbol id="mail" viewBox="0 0 20 14">
        <path d="M17 0H3C2.20435 0 1.44129 0.316071 0.87868 0.87868C0.31607 1.44129 0 2.20435 0 3L0 11C0 11.7956 0.31607 12.5587 0.87868 13.1213C1.44129 13.6839 2.20435 14 3 14H17C17.7956 14 18.5587 13.6839 19.1213 13.1213C19.6839 12.5587 20 11.7956 20 11V3C20 2.20435 19.6839 1.44129 19.1213 0.87868C18.5587 0.316071 17.7956 0 17 0ZM16.33 2L10 6.75L3.67 2H16.33ZM17 12H3C2.73478 12 2.48043 11.8946 2.29289 11.7071C2.10536 11.5196 2 11.2652 2 11V3.25L9.4 8.8C9.5731 8.92982 9.78363 9 10 9C10.2164 9 10.4269 8.92982 10.6 8.8L18 3.25V11C18 11.2652 17.8946 11.5196 17.7071 11.7071C17.5196 11.8946 17.2652 12 17 12Z"/>
    </symbol>

    <symbol id="close" viewBox="0 0 47.971 47.971">
        <path d="M28.228,23.986L47.092,5.122c1.172-1.171,1.172-3.071,0-4.242c-1.172-1.172-3.07-1.172-4.242,0L23.986,19.744L5.121,0.88
		c-1.172-1.172-3.07-1.172-4.242,0c-1.172,1.171-1.172,3.071,0,4.242l18.865,18.864L0.879,42.85c-1.172,1.171-1.172,3.071,0,4.242
		C1.465,47.677,2.233,47.97,3,47.97s1.535-0.293,2.121-0.879l18.865-18.864L42.85,47.091c0.586,0.586,1.354,0.879,2.121,0.879
		s1.535-0.293,2.121-0.879c1.172-1.171,1.172-3.071,0-4.242L28.228,23.986z"/>
    </symbol>

    <symbol id="download" viewBox="0 0 24 24">
        <!-- <rect y="0" fill="none" width="24" height="24"/> -->
        <path d="M17.099,13.356c-0.926-0.729-1.806-1.478-2.392-2.063c-0.762-0.762-1.44-1.5-2.03-2.203C13.597,6.247,14,4.781,14,4
        c0-3.319-1.199-4-3-4C9.632,0,8,0.711,8,4.096C8,5.588,8.817,7.4,10.438,9.505c-0.396,1.21-0.862,2.605-1.386,4.179
        c-0.252,0.755-0.525,1.454-0.815,2.101c-0.235,0.105-0.464,0.211-0.685,0.321c-0.795,0.397-1.55,0.755-2.25,1.087
        C2.109,18.704,0,19.704,0,21.679C0,23.112,1.558,24,3,24c1.859,0,4.667-2.483,6.718-6.667c2.129-0.84,4.775-1.462,6.864-1.852
        C18.256,16.769,20.104,18,21,18c2.479,0,3-1.434,3-2.636C24,13,21.299,13,20,13C19.597,13,18.515,13.119,17.099,13.356z M3,22
        c-0.571,0-0.958-0.27-1-0.321c0-0.709,2.114-1.711,4.159-2.68c0.13-0.062,0.262-0.123,0.396-0.187C5.053,20.99,3.567,22,3,22z
        M10,4.096C10,2,10.65,2,11,2c0.707,0,1,0,1,2c0,0.422-0.281,1.477-0.796,3.123C10.419,5.914,10,4.878,10,4.096z M10.767,14.844
        c0.063-0.174,0.123-0.35,0.182-0.527c0.371-1.113,0.705-2.113,1.003-3.014c0.415,0.457,0.862,0.925,1.342,1.404
        c0.188,0.188,0.652,0.609,1.272,1.138C13.332,14.113,12.021,14.446,10.767,14.844z M22,15.364c0,0.449,0,0.636-0.928,0.642
        c-0.272-0.059-0.902-0.43-1.68-0.959C19.675,15.016,19.883,15,20,15C21.478,15,21.897,15.145,22,15.364z"/>
    </symbol> 

    <symbol id="siluet" viewBox="0 0 24 24">
        <!-- <rect y="0" fill="none" width="24" height="24"/> -->
        <path d="M3.439,21.241c0.214,0.119,0.435,0.242,0.661,0.467c0.281,0.28,0.496,0.636,0.685,0.951
        c0.153,0.254,0.298,0.494,0.455,0.661c0.38,0.4,0.711,0.568,1.219,0.62C6.877,23.98,7.257,24,7.621,24
        c0.712,0,1.407-0.077,2.186-0.244c0.532-0.115,1.385-0.442,1.862-0.714c0.112-0.065,1.067-0.557,1.216-0.624
        c0.216-0.105,0.599-0.228,1.042-0.369c0.447-0.143,0.953-0.305,1.341-0.47c0.613-0.255,1.641-0.523,2.558-0.55
        c0.191-0.007,0.406-0.012,0.635-0.018c0.807-0.021,1.812-0.047,2.632-0.163c0.595-0.08,1.202-0.272,1.445-0.456
        c0.074-0.058,0.095-0.157,0.1-0.229c0.013-0.205-0.085-0.45-0.243-0.611c-0.03-0.03-0.058-0.06-0.086-0.09
        c-0.182-0.195-0.354-0.38-1.194-0.574c-0.311-0.073-0.608-0.108-0.907-0.108c-0.69,0-1.303,0.194-1.952,0.4
        c-0.154,0.049-0.311,0.099-0.472,0.147c-0.554,0.173-1.117,0.257-1.72,0.257c-0.43,0-0.834-0.043-1.174-0.085
        c-0.695-0.088-1.472-0.919-1.677-1.575c-0.215-0.659-0.255-1.24-0.132-1.883c0.116-0.604,0.346-1.057,0.568-1.494
        c0.06-0.119,0.12-0.236,0.177-0.356c0.276-0.592,1.298-1.881,1.656-2.267c0.595-0.647,1.016-1.124,1.424-1.584l0.18-0.203
        c0.167-0.191,0.333-0.401,0.526-0.645c0.252-0.319,0.537-0.681,0.906-1.101c0.429-0.481,0.674-0.789,0.984-1.179
        c0.114-0.143,0.237-0.298,0.382-0.478c0.241-0.311,0.649-1.006,0.715-1.324c0.067-0.304-0.05-0.61-0.197-0.721
        c-0.083-0.06-0.203-0.094-0.336-0.094c-0.187,0-0.368,0.066-0.497,0.181C19.096,5.199,18.737,5.7,18.357,6.23
        c-0.241,0.336-0.489,0.683-0.769,1.006c-0.341,0.401-0.681,0.761-1.009,1.108c-0.234,0.248-0.456,0.483-0.659,0.712
        c-0.315,0.352-0.598,0.683-0.865,0.994c-0.368,0.429-0.715,0.835-1.069,1.207c-0.375,0.393-0.802,0.61-1.204,0.61
        c-0.238,0-0.451-0.078-0.599-0.219c-0.385-0.363-0.194-1.146-0.048-1.448c0.091-0.191,0.191-0.387,0.415-0.827l0.392-0.773
        c0.302-0.6,0.681-1.499,1.159-2.746C14.274,5.4,14.505,4.88,14.748,4.33c0.248-0.56,0.529-1.195,0.801-1.877
        c0.343-0.862,0.205-1.384-0.084-1.52c-0.44-0.208-0.835-0.054-1.099,0.452c-0.359,0.692-0.577,1.173-1.738,3.97
        c-0.058,0.141-0.201,0.416-0.383,0.764c-0.238,0.459-0.535,1.03-0.8,1.6c-0.169,0.362-0.325,0.747-0.462,1.086
        c-0.301,0.744-0.519,1.282-0.778,1.441c-0.491,0.299-0.973,0.219-1.151-0.189C8.872,9.64,8.957,8.94,9.057,8.13
        c0.041-0.338,0.085-0.688,0.11-1.038c0.098-1.272,0.216-2.03,0.307-2.547c0.062-0.352,0.219-1.003,0.371-1.634
        c0.145-0.603,0.296-1.226,0.36-1.577c0.073-0.413,0.033-0.895-0.089-1.097C10.061,0.144,9.888,0,9.649,0
        C9.519,0,9.39,0.043,9.265,0.128C9.048,0.267,8.862,0.641,8.711,1.241C8.522,2.002,8.421,2.49,8.313,3.006
        C8.204,3.529,8.091,4.069,7.877,4.958C7.84,5.116,7.795,5.294,7.744,5.493C7.591,6.098,7.381,6.926,7.185,8.015
        c-0.053,0.3-0.089,0.626-0.127,0.971c-0.053,0.482-0.107,0.98-0.217,1.513c-0.069,0.319-0.438,0.577-0.62,0.645
        c-0.127,0.049-0.246,0.096-0.386,0.096c-0.179,0-0.356-0.075-0.572-0.244c-0.341-0.264-1.054-1.778-1.324-2.482
        C3.71,7.933,3.471,7.307,3.274,6.674C3.162,6.309,3.08,5.993,2.994,5.658c-0.119-0.462-0.242-0.94-0.462-1.617
        c-0.104-0.323-0.42-0.437-0.659-0.437c-0.057,0-0.111,0.007-0.152,0.019C1.557,3.671,1.342,3.787,1.362,4.241
        C1.394,4.954,1.64,5.967,1.689,6.163c0.248,0.971,0.427,1.504,0.676,2.241l0.216,0.64c0.207,0.609,0.421,1.239,0.6,1.965
        c0.167,0.681,0.263,1.686,0.033,2.46l-0.1,0.328c-0.228,0.747-0.572,1.876-0.816,2.965c-0.106,0.453-0.281,1.442-0.264,2.284
        c0.018,0.782,0.196,1.211,0.707,1.702C2.994,20.993,3.22,21.119,3.439,21.241z"/>
    </symbol>

</svg>

